FILE "Historia del mundo contada para escépticos [History of the World for Skeptics] [B074MPJGKQ].m4b" MP3
TRACK 1 AUDIO
  TITLE "Capítulo 1"
  INDEX 01 0:00:00
TRACK 2 AUDIO
  TITLE "Capítulo 2"
  INDEX 01 7:04:65
TRACK 3 AUDIO
  TITLE "Capítulo 3"
  INDEX 01 18:39:70
TRACK 4 AUDIO
  TITLE "Capítulo 4"
  INDEX 01 26:06:45
TRACK 5 AUDIO
  TITLE "Capítulo 5"
  INDEX 01 32:27:72
TRACK 6 AUDIO
  TITLE "Capítulo 6"
  INDEX 01 37:13:15
TRACK 7 AUDIO
  TITLE "Capítulo 7"
  INDEX 01 39:01:72
TRACK 8 AUDIO
  TITLE "Capítulo 8"
  INDEX 01 46:12:06
TRACK 9 AUDIO
  TITLE "Capítulo 9"
  INDEX 01 51:09:54
TRACK 10 AUDIO
  TITLE "Capítulo 10"
  INDEX 01 60:37:64
TRACK 11 AUDIO
  TITLE "Capítulo 11"
  INDEX 01 65:48:58
TRACK 12 AUDIO
  TITLE "Capítulo 12"
  INDEX 01 69:39:51
TRACK 13 AUDIO
  TITLE "Capítulo 13"
  INDEX 01 73:49:15
TRACK 14 AUDIO
  TITLE "Capítulo 14"
  INDEX 01 81:10:63
TRACK 15 AUDIO
  TITLE "Capítulo 15"
  INDEX 01 88:11:09
TRACK 16 AUDIO
  TITLE "Capítulo 16"
  INDEX 01 94:41:23
TRACK 17 AUDIO
  TITLE "Capítulo 17"
  INDEX 01 98:01:52
TRACK 18 AUDIO
  TITLE "Capítulo 18"
  INDEX 01 102:40:70
TRACK 19 AUDIO
  TITLE "Capítulo 19"
  INDEX 01 113:30:54
TRACK 20 AUDIO
  TITLE "Capítulo 20"
  INDEX 01 119:16:49
TRACK 21 AUDIO
  TITLE "Capítulo 21"
  INDEX 01 123:27:04
TRACK 22 AUDIO
  TITLE "Capítulo 22"
  INDEX 01 126:02:61
TRACK 23 AUDIO
  TITLE "Capítulo 23"
  INDEX 01 129:23:71
TRACK 24 AUDIO
  TITLE "Capítulo 24"
  INDEX 01 135:39:73
TRACK 25 AUDIO
  TITLE "Capítulo 25"
  INDEX 01 138:56:52
TRACK 26 AUDIO
  TITLE "Capítulo 26"
  INDEX 01 144:16:22
TRACK 27 AUDIO
  TITLE "Capítulo 27"
  INDEX 01 146:27:74
TRACK 28 AUDIO
  TITLE "Capítulo 28"
  INDEX 01 148:12:43
TRACK 29 AUDIO
  TITLE "Capítulo 29"
  INDEX 01 153:26:21
TRACK 30 AUDIO
  TITLE "Capítulo 30"
  INDEX 01 159:17:65
TRACK 31 AUDIO
  TITLE "Capítulo 31"
  INDEX 01 163:45:66
TRACK 32 AUDIO
  TITLE "Capítulo 32"
  INDEX 01 165:30:31
TRACK 33 AUDIO
  TITLE "Capítulo 33"
  INDEX 01 174:09:28
TRACK 34 AUDIO
  TITLE "Capítulo 34"
  INDEX 01 177:09:53
TRACK 35 AUDIO
  TITLE "Capítulo 35"
  INDEX 01 178:57:68
TRACK 36 AUDIO
  TITLE "Capítulo 36"
  INDEX 01 184:28:21
TRACK 37 AUDIO
  TITLE "Capítulo 37"
  INDEX 01 191:28:00
TRACK 38 AUDIO
  TITLE "Capítulo 38"
  INDEX 01 200:44:61
TRACK 39 AUDIO
  TITLE "Capítulo 39"
  INDEX 01 205:41:25
TRACK 40 AUDIO
  TITLE "Capítulo 40"
  INDEX 01 212:20:08
TRACK 41 AUDIO
  TITLE "Capítulo 41"
  INDEX 01 216:25:51
TRACK 42 AUDIO
  TITLE "Capítulo 42"
  INDEX 01 220:10:17
TRACK 43 AUDIO
  TITLE "Capítulo 43"
  INDEX 01 228:59:13
TRACK 44 AUDIO
  TITLE "Capítulo 44"
  INDEX 01 237:41:36
TRACK 45 AUDIO
  TITLE "Capítulo 45"
  INDEX 01 245:50:44
TRACK 46 AUDIO
  TITLE "Capítulo 46"
  INDEX 01 254:51:08
TRACK 47 AUDIO
  TITLE "Capítulo 47"
  INDEX 01 262:50:58
TRACK 48 AUDIO
  TITLE "Capítulo 48"
  INDEX 01 267:44:24
TRACK 49 AUDIO
  TITLE "Capítulo 49"
  INDEX 01 271:34:18
TRACK 50 AUDIO
  TITLE "Capítulo 50"
  INDEX 01 275:55:74
TRACK 51 AUDIO
  TITLE "Capítulo 51"
  INDEX 01 286:11:34
TRACK 52 AUDIO
  TITLE "Capítulo 52"
  INDEX 01 291:13:06
TRACK 53 AUDIO
  TITLE "Capítulo 53"
  INDEX 01 296:07:38
TRACK 54 AUDIO
  TITLE "Capítulo 54"
  INDEX 01 302:00:20
TRACK 55 AUDIO
  TITLE "Capítulo 55"
  INDEX 01 311:33:04
TRACK 56 AUDIO
  TITLE "Capítulo 56"
  INDEX 01 321:25:05
TRACK 57 AUDIO
  TITLE "Capítulo 57"
  INDEX 01 324:13:38
TRACK 58 AUDIO
  TITLE "Capítulo 58"
  INDEX 01 327:57:22
TRACK 59 AUDIO
  TITLE "Capítulo 59"
  INDEX 01 339:10:05
TRACK 60 AUDIO
  TITLE "Capítulo 60"
  INDEX 01 346:03:29
TRACK 61 AUDIO
  TITLE "Capítulo 61"
  INDEX 01 349:24:28
TRACK 62 AUDIO
  TITLE "Capítulo 62"
  INDEX 01 354:02:62
TRACK 63 AUDIO
  TITLE "Capítulo 63"
  INDEX 01 358:43:59
TRACK 64 AUDIO
  TITLE "Capítulo 64"
  INDEX 01 368:01:64
TRACK 65 AUDIO
  TITLE "Capítulo 65"
  INDEX 01 372:34:66
TRACK 66 AUDIO
  TITLE "Capítulo 66"
  INDEX 01 383:20:68
TRACK 67 AUDIO
  TITLE "Capítulo 67"
  INDEX 01 396:28:32
TRACK 68 AUDIO
  TITLE "Capítulo 68"
  INDEX 01 403:23:35
TRACK 69 AUDIO
  TITLE "Capítulo 69"
  INDEX 01 410:41:08
TRACK 70 AUDIO
  TITLE "Capítulo 70"
  INDEX 01 416:07:58
TRACK 71 AUDIO
  TITLE "Capítulo 71"
  INDEX 01 419:49:15
TRACK 72 AUDIO
  TITLE "Capítulo 72"
  INDEX 01 425:14:59
TRACK 73 AUDIO
  TITLE "Capítulo 73"
  INDEX 01 430:26:61
TRACK 74 AUDIO
  TITLE "Capítulo 74"
  INDEX 01 432:48:52
TRACK 75 AUDIO
  TITLE "Capítulo 75"
  INDEX 01 436:50:58
TRACK 76 AUDIO
  TITLE "Capítulo 76"
  INDEX 01 446:23:63
TRACK 77 AUDIO
  TITLE "Capítulo 77"
  INDEX 01 450:36:05
TRACK 78 AUDIO
  TITLE "Capítulo 78"
  INDEX 01 457:40:25
TRACK 79 AUDIO
  TITLE "Capítulo 79"
  INDEX 01 463:04:09
TRACK 80 AUDIO
  TITLE "Capítulo 80"
  INDEX 01 465:46:60
TRACK 81 AUDIO
  TITLE "Capítulo 81"
  INDEX 01 470:15:16
TRACK 82 AUDIO
  TITLE "Capítulo 82"
  INDEX 01 477:12:39
TRACK 83 AUDIO
  TITLE "Capítulo 83"
  INDEX 01 482:37:31
TRACK 84 AUDIO
  TITLE "Capítulo 84"
  INDEX 01 487:58:38
TRACK 85 AUDIO
  TITLE "Capítulo 85"
  INDEX 01 496:58:66
TRACK 86 AUDIO
  TITLE "Capítulo 86"
  INDEX 01 499:41:00
TRACK 87 AUDIO
  TITLE "Capítulo 87"
  INDEX 01 505:00:34
TRACK 88 AUDIO
  TITLE "Capítulo 88"
  INDEX 01 510:35:29
TRACK 89 AUDIO
  TITLE "Capítulo 89"
  INDEX 01 519:00:07
TRACK 90 AUDIO
  TITLE "Capítulo 90"
  INDEX 01 526:56:28
TRACK 91 AUDIO
  TITLE "Capítulo 91"
  INDEX 01 533:11:18
TRACK 92 AUDIO
  TITLE "Capítulo 92"
  INDEX 01 535:46:26
TRACK 93 AUDIO
  TITLE "Capítulo 93"
  INDEX 01 542:25:30
TRACK 94 AUDIO
  TITLE "Capítulo 94"
  INDEX 01 546:19:00
TRACK 95 AUDIO
  TITLE "Capítulo 95"
  INDEX 01 549:06:17
TRACK 96 AUDIO
  TITLE "Capítulo 96"
  INDEX 01 553:00:21
TRACK 97 AUDIO
  TITLE "Capítulo 97"
  INDEX 01 556:43:63
TRACK 98 AUDIO
  TITLE "Capítulo 98"
  INDEX 01 558:51:56
TRACK 99 AUDIO
  TITLE "Capítulo 99"
  INDEX 01 561:48:47
TRACK 100 AUDIO
  TITLE "Capítulo 100"
  INDEX 01 565:04:18
TRACK 101 AUDIO
  TITLE "Capítulo 101"
  INDEX 01 570:16:30
TRACK 102 AUDIO
  TITLE "Capítulo 102"
  INDEX 01 574:11:29
TRACK 103 AUDIO
  TITLE "Capítulo 103"
  INDEX 01 579:57:52
TRACK 104 AUDIO
  TITLE "Capítulo 104"
  INDEX 01 587:43:43
TRACK 105 AUDIO
  TITLE "Capítulo 105"
  INDEX 01 590:24:54
TRACK 106 AUDIO
  TITLE "Capítulo 106"
  INDEX 01 592:53:60
TRACK 107 AUDIO
  TITLE "Capítulo 107"
  INDEX 01 597:53:70
TRACK 108 AUDIO
  TITLE "Capítulo 108"
  INDEX 01 606:05:38
TRACK 109 AUDIO
  TITLE "Capítulo 109"
  INDEX 01 608:12:39
TRACK 110 AUDIO
  TITLE "Capítulo 110"
  INDEX 01 614:09:69
TRACK 111 AUDIO
  TITLE "Capítulo 111"
  INDEX 01 622:34:43
TRACK 112 AUDIO
  TITLE "Capítulo 112"
  INDEX 01 628:51:43
TRACK 113 AUDIO
  TITLE "Capítulo 113"
  INDEX 01 640:24:38
TRACK 114 AUDIO
  TITLE "Capítulo 114"
  INDEX 01 645:22:35
TRACK 115 AUDIO
  TITLE "Capítulo 115"
  INDEX 01 652:38:16
TRACK 116 AUDIO
  TITLE "Capítulo 116"
  INDEX 01 657:28:66
TRACK 117 AUDIO
  TITLE "Capítulo 117"
  INDEX 01 660:11:52
TRACK 118 AUDIO
  TITLE "Capítulo 118"
  INDEX 01 663:21:06
TRACK 119 AUDIO
  TITLE "Capítulo 119"
  INDEX 01 665:30:38
TRACK 120 AUDIO
  TITLE "Capítulo 120"
  INDEX 01 668:17:55
TRACK 121 AUDIO
  TITLE "Capítulo 121"
  INDEX 01 682:59:02
TRACK 122 AUDIO
  TITLE "Capítulo 122"
  INDEX 01 688:27:68
TRACK 123 AUDIO
  TITLE "Capítulo 123"
  INDEX 01 693:59:30
TRACK 124 AUDIO
  TITLE "Capítulo 124"
  INDEX 01 702:05:12
TRACK 125 AUDIO
  TITLE "Capítulo 125"
  INDEX 01 706:21:14
TRACK 126 AUDIO
  TITLE "Capítulo 126"
  INDEX 01 708:59:09
